<svg width="35px" height="35px" viewBox="0 0 0.656 0.656" fill="none" xmlns="http://www.w3.org/2000/svg"><path fill-rule="evenodd" clip-rule="evenodd" d="M0 0.328a0.328 0.328 0 1 1 0.656 0 0.328 0.328 0 0 1 -0.656 0m0.338 -0.096c-0.071 -0.006 -0.143 0.003 -0.202 0.024l-0.015 -0.041c0.066 -0.023 0.144 -0.032 0.22 -0.026 0.076 0.006 0.152 0.028 0.212 0.069l-0.025 0.036c-0.052 -0.035 -0.12 -0.055 -0.191 -0.061m-0.193 0.118c0.151 -0.027 0.256 -0.013 0.343 0.05l0.026 -0.036C0.413 0.291 0.295 0.279 0.138 0.307zm0.015 0.093c0.043 -0.01 0.096 -0.015 0.148 -0.01 0.052 0.005 0.102 0.02 0.14 0.047l0.025 -0.036c-0.046 -0.032 -0.104 -0.049 -0.161 -0.054a0.503 0.503 0 0 0 -0.163 0.011z" fill="#1DB954"/></svg>