<svg width="35px" height="35px" viewBox="0 0 5.6 5.6" xmlns="http://www.w3.org/2000/svg">

  <defs>
    <filter id="blueGlow">
      <feGaussianBlur stdDeviation="0.25" result="blur"/>
      <feMerge>
        <feMergeNode in="blur"/>
        <feMergeNode in="SourceGraphic"/>
      </feMerge>
    </filter>
  </defs>

  <g fill="#5daaff" filter="url(#blueGlow)">
    <path d="M0.961 4.172V3.635h0.743a0.919 0.919 0 0 1 -0.04 -0.175H0.961V2.778h0.842c0.03 -0.058 0.064 -0.116 0.103 -0.175h-0.945V1.95h1.555c0.029 -0.024 0.057 -0.046 0.083 -0.066l-0.023 -0.109H0.961V1.123h1.48a2.056 2.056 0 0 1 -0.021 -0.175H0.152v3.399h2.294c-0.123 -0.042 -0.237 -0.102 -0.338 -0.175H0.961z"/>
    <path d="M3.572 4.347h1.876v-0.175H3.713c-0.048 0.041 -0.098 0.077 -0.15 0.108 0.003 0.02 0.007 0.042 0.01 0.067"/>
    <path d="M3.848 1.123h1.6v-0.175H3.85c0.004 0.059 0.003 0.118 -0.002 0.175"/>
    <path d="M3.859 2.778h1.589v-0.175H3.655c0.077 0.045 0.145 0.103 0.204 0.175"/>
    <path d="M5.448 1.95v-0.175H3.594c-0.042 0.062 -0.086 0.12 -0.131 0.175z"/>
    <path d="M5.448 3.635v-0.175h-1.374c-0.003 0.064 -0.013 0.122 -0.026 0.175z"/>
  </g>

  <path d="M3.814 2.94c-0.196 -0.312 -0.491 -0.326 -0.71 -0.306l-0.081 -0.412c0.388 -0.367 0.856 -0.888 0.647 -1.504 -0.178 -0.525 -0.455 -0.531 -0.593 -0.531s-0.68 0.037 -0.494 0.984l0.161 0.769C2.507 2.113 1.737 2.729 1.79 3.402c0.037 0.52 0.579 0.922 1.165 0.884 0.062 -0.003 0.196 -0.013 0.247 -0.017 0 0 0.135 0.469 -0.067 0.743 -0.124 0.169 -0.332 0.221 -0.513 0.158a0.357 0.357 0 0 0 0.197 -0.319c-0.018 -0.474 -0.697 -0.474 -0.715 0 0 0.342 0.234 0.562 0.722 0.562 0.196 0 0.387 -0.143 0.485 -0.272 0.26 -0.34 0.101 -0.935 0.101 -0.935 0.34 -0.139 0.744 -0.652 0.401 -1.266" fill="#5daaff" filter="url(#blueGlow)"/>
</svg>
