<svg version="1.1" id="Layer_1" xmlns="http://www.w3.org/2000/svg" xmlns:xlink="http://www.w3.org/1999/xlink" x="0px" y="0px" viewBox="0 0 35 35" style="enable-background:new 0 0 480 480;" xml:space="preserve" width="35" height="35"><path style="fill:#2A3332;" cx="240" cy="240" r="240" d="M35 17.5A17.5 17.5 0 0 1 17.5 35A17.5 17.5 0 0 1 0 17.5A17.5 17.5 0 0 1 35 17.5z"/><path style="fill:#121C1B;" d="M17.5 0c9.683 0 17.5 7.817 17.5 17.5S27.183 35 17.5 35"/><g><path style="fill:#726C6A;" d="M7.117 27.883C1.4 22.167 1.4 12.833 7.117 7.117c0.233 -0.233 0.583 -0.233 0.758 0 0.233 0.233 0.233 0.583 0 0.758 -5.308 5.308 -5.308 13.883 0 19.192 0.233 0.233 0.233 0.583 0 0.758 -0.175 0.233 -0.525 0.233 -0.758 0.058"/><path style="fill:#726C6A;" d="M27.067 27.883c-0.233 -0.233 -0.233 -0.583 0 -0.758 5.308 -5.308 5.308 -13.883 0 -19.192 -0.233 -0.233 -0.233 -0.583 0 -0.758 0.233 -0.233 0.583 -0.233 0.758 0 5.717 5.717 5.717 14.992 0 20.708 -0.175 0.175 -0.525 0.175 -0.758 0"/><path style="fill:#726C6A;" d="M9.567 25.433c-4.375 -4.375 -4.375 -11.492 0 -15.867 0.233 -0.233 0.583 -0.233 0.758 0 0.233 0.233 0.233 0.583 0 0.758 -3.967 3.967 -3.967 10.383 0 14.35 0.233 0.233 0.233 0.583 0 0.758 -0.233 0.233 -0.583 0.233 -0.758 0"/><path style="fill:#726C6A;" d="M24.675 25.433c-0.233 -0.233 -0.233 -0.583 0 -0.758 3.967 -3.967 3.967 -10.383 0 -14.35 -0.233 -0.233 -0.233 -0.583 0 -0.758 0.233 -0.233 0.583 -0.233 0.758 0 4.375 4.375 4.375 11.492 0 15.867 -0.175 0.233 -0.525 0.233 -0.758 0"/></g><path style="fill:#49ed00;" d="M27.417 17.5c0 -4.842 3.15 -8.983 7.583 -10.383V2.217C35 0.992 34.008 0 32.783 0H2.217C0.992 0 0 0.992 0 2.217v30.567C0 34.008 0.992 35 2.217 35h30.567c1.225 0 2.217 -0.992 2.217 -2.217v-4.9c-4.375 -1.4 -7.583 -5.542 -7.583 -10.383"/><path style="fill:#3ec119;" d="M32.783 35c1.225 0 2.217 -0.992 2.217 -2.217v-4.9c-4.375 -1.4 -7.583 -5.542 -7.583 -10.383s3.15 -8.983 7.583 -10.383V2.217C35 0.992 34.008 0 32.783 0H2.217C0.992 0 0 0.992 0 2.217"/><path style="fill:#35b615;" d="M32.433 8.342c-0.7 -1.167 -1.575 -2.217 -2.508 -3.208 -6.825 -6.825 -17.908 -6.825 -24.733 0s-6.825 17.908 0 24.733C8.517 33.308 13.008 35 17.5 35s8.925 -1.692 12.367 -5.133c0.992 -0.992 1.808 -2.1 2.508 -3.208 -2.975 -1.925 -4.958 -5.308 -4.958 -9.158s1.983 -7.233 5.017 -9.158"/><path style="fill:#49ed00;" d="M29.867 5.133C23.042 -1.692 11.958 -1.692 5.133 5.133c-0.35 0.35 -0.7 0.758 -1.05 1.167L28.7 30.917c0.408 -0.35 0.817 -0.7 1.167 -1.05 0.992 -0.992 1.808 -2.1 2.508 -3.208 -0.758 -0.467 -1.4 -1.05 -1.983 -1.692l-0.058 -0.058c-0.117 -0.117 -0.233 -0.292 -0.408 -0.467 0 -0.058 -0.058 -0.058 -0.058 -0.117 -0.35 -0.467 -0.7 -0.933 -0.992 -1.4 -0.058 -0.058 -0.117 -0.175 -0.117 -0.233l-0.175 -0.35 -0.175 -0.35 -0.175 -0.35c-0.058 -0.117 -0.117 -0.292 -0.175 -0.467 0 -0.058 -0.058 -0.175 -0.058 -0.233 -0.058 -0.233 -0.175 -0.467 -0.233 -0.7 0 -0.117 -0.058 -0.175 -0.058 -0.292 -0.058 -0.175 -0.058 -0.35 -0.117 -0.525 0 -0.117 -0.058 -0.175 -0.058 -0.292 0 -0.175 -0.058 -0.35 -0.058 -0.525V18.375c0 -0.292 -0.058 -0.525 -0.058 -0.817s0 -0.525 0.058 -0.817v-0.233c0 -0.175 0.058 -0.35 0.058 -0.525 0 -0.117 0.058 -0.175 0.058 -0.292 0.058 -0.175 0.058 -0.35 0.117 -0.525 0 -0.117 0.058 -0.175 0.058 -0.292 0.058 -0.233 0.117 -0.467 0.233 -0.7 0.058 -0.117 0.058 -0.175 0.117 -0.292 0.058 -0.175 0.117 -0.292 0.175 -0.467l0.175 -0.35 0.175 -0.35 0.175 -0.35c0.058 -0.058 0.117 -0.175 0.117 -0.233 0.292 -0.467 0.583 -0.992 0.992 -1.4 0 -0.058 0.058 -0.058 0.058 -0.117 0.117 -0.175 0.233 -0.292 0.408 -0.408l0.058 -0.058c0.583 -0.642 1.283 -1.167 1.983 -1.692 -0.7 -1.283 -1.575 -2.333 -2.567 -3.325"/><path style="fill:#B0CCD1;" d="M17.5 25.55c-2.158 0 -4.2 -0.817 -5.717 -2.392 -3.15 -3.15 -3.15 -8.283 0 -11.433 1.517 -1.517 3.558 -2.333 5.717 -2.333s4.2 0.817 5.717 2.333c3.15 3.15 3.15 8.283 0 11.433 -1.517 1.575 -3.558 2.392 -5.717 2.392"/><path style="fill:#364444;" d="M17.5 9.975c1.925 0 3.85 0.758 5.308 2.217 2.917 2.917 2.917 7.7 0 10.617 -1.458 1.458 -3.383 2.217 -5.308 2.217s-3.85 -0.758 -5.308 -2.217c-2.917 -2.917 -2.917 -7.7 0 -10.617 1.458 -1.458 3.383 -2.217 5.308 -2.217m0 -1.108c-2.275 0 -4.492 0.875 -6.067 2.508 -1.633 1.633 -2.508 3.792 -2.508 6.067s0.875 4.492 2.508 6.067c1.633 1.633 3.792 2.508 6.067 2.508s4.492 -0.875 6.067 -2.508c3.383 -3.383 3.383 -8.808 0 -12.192 -1.575 -1.517 -3.792 -2.45 -6.067 -2.45"/><path style="fill:#BFD5D8;" d="M9.975 17.5c0 -4.142 3.383 -7.525 7.525 -7.525S25.025 13.358 25.025 17.5"/><path style="fill:#9BB6BC;" d="m18.9 16.392 -2.683 2.683 4.958 4.958c0.583 -0.35 1.108 -0.7 1.633 -1.225 0.408 -0.408 0.817 -0.875 1.108 -1.4z"/><path style="fill:#121C1B;" cx="240" cy="240" r="28.8" d="M19.6 17.5A2.1 2.1 0 0 1 17.5 19.6A2.1 2.1 0 0 1 15.4 17.5A2.1 2.1 0 0 1 19.6 17.5z"/><path style="fill:#364444;" d="M17.5 19.6c-1.167 0 -2.1 -0.933 -2.1 -2.1s0.933 -2.1 2.1 -2.1"/></svg>